<mxfile host="Electron" modified="2024-04-02T15:59:32.045Z" agent="Mozilla/5.0 (Windows NT 10.0; Win64; x64) AppleWebKit/537.36 (KHTML, like Gecko) draw.io/24.1.0 Chrome/120.0.6099.109 Electron/28.1.0 Safari/537.36" etag="8m9conxaJvR81gJuhy_U" version="24.1.0" type="device">
  <diagram name="Página-1" id="1Tql2ecSNOwW80QSVyGi">
    <mxGraphModel dx="1000" dy="591" grid="1" gridSize="10" guides="1" tooltips="1" connect="1" arrows="1" fold="1" page="1" pageScale="1" pageWidth="827" pageHeight="1169" math="0" shadow="0">
      <root>
        <mxCell id="0" />
        <mxCell id="1" parent="0" />
        <mxCell id="56JyR-bc5Yv8i7RmvaTg-1" value="Ações do Sistema" style="rounded=0;whiteSpace=wrap;html=1;" parent="1" vertex="1">
          <mxGeometry width="120" height="60" as="geometry" />
        </mxCell>
        <mxCell id="56JyR-bc5Yv8i7RmvaTg-2" value="Ações Humanas" style="ellipse;whiteSpace=wrap;html=1;" parent="1" vertex="1">
          <mxGeometry x="130" width="120" height="60" as="geometry" />
        </mxCell>
        <mxCell id="56JyR-bc5Yv8i7RmvaTg-3" value="Decisão" style="rhombus;whiteSpace=wrap;html=1;" parent="1" vertex="1">
          <mxGeometry x="260" width="80" height="50" as="geometry" />
        </mxCell>
        <mxCell id="56JyR-bc5Yv8i7RmvaTg-4" value="Pontos de ação" style="shape=process;whiteSpace=wrap;html=1;backgroundOutline=1;" parent="1" vertex="1">
          <mxGeometry x="354" y="10" width="120" height="30" as="geometry" />
        </mxCell>
        <mxCell id="YjTdUMy0hwMRpe88G5Yf-2" style="edgeStyle=orthogonalEdgeStyle;rounded=0;orthogonalLoop=1;jettySize=auto;html=1;exitX=0.5;exitY=1;exitDx=0;exitDy=0;entryX=0.5;entryY=0;entryDx=0;entryDy=0;" edge="1" parent="1" source="56JyR-bc5Yv8i7RmvaTg-8" target="YjTdUMy0hwMRpe88G5Yf-1">
          <mxGeometry relative="1" as="geometry" />
        </mxCell>
        <mxCell id="56JyR-bc5Yv8i7RmvaTg-8" value="Início" style="ellipse;whiteSpace=wrap;html=1;" parent="1" vertex="1">
          <mxGeometry x="379" y="80" width="70" height="30" as="geometry" />
        </mxCell>
        <mxCell id="YjTdUMy0hwMRpe88G5Yf-4" value="" style="edgeStyle=orthogonalEdgeStyle;rounded=0;orthogonalLoop=1;jettySize=auto;html=1;" edge="1" parent="1" source="YjTdUMy0hwMRpe88G5Yf-1" target="YjTdUMy0hwMRpe88G5Yf-3">
          <mxGeometry relative="1" as="geometry" />
        </mxCell>
        <mxCell id="YjTdUMy0hwMRpe88G5Yf-1" value="Cadastrar tudo que for necessário" style="ellipse;whiteSpace=wrap;html=1;" vertex="1" parent="1">
          <mxGeometry x="356" y="130" width="116" height="70" as="geometry" />
        </mxCell>
        <mxCell id="YjTdUMy0hwMRpe88G5Yf-7" value="" style="edgeStyle=orthogonalEdgeStyle;rounded=0;orthogonalLoop=1;jettySize=auto;html=1;" edge="1" parent="1" source="YjTdUMy0hwMRpe88G5Yf-3" target="YjTdUMy0hwMRpe88G5Yf-6">
          <mxGeometry relative="1" as="geometry" />
        </mxCell>
        <mxCell id="YjTdUMy0hwMRpe88G5Yf-3" value="Gravar os dados no Data Base" style="rounded=0;whiteSpace=wrap;html=1;" vertex="1" parent="1">
          <mxGeometry x="361" y="230" width="106" height="50" as="geometry" />
        </mxCell>
        <mxCell id="YjTdUMy0hwMRpe88G5Yf-9" value="" style="edgeStyle=orthogonalEdgeStyle;rounded=0;orthogonalLoop=1;jettySize=auto;html=1;" edge="1" parent="1" source="YjTdUMy0hwMRpe88G5Yf-6">
          <mxGeometry relative="1" as="geometry">
            <mxPoint x="414" y="410" as="targetPoint" />
          </mxGeometry>
        </mxCell>
        <mxCell id="YjTdUMy0hwMRpe88G5Yf-6" value="Anotar o pedido no celular, já marcando o que for para cozinha" style="ellipse;whiteSpace=wrap;html=1;" vertex="1" parent="1">
          <mxGeometry x="346" y="300" width="136" height="80" as="geometry" />
        </mxCell>
        <mxCell id="YjTdUMy0hwMRpe88G5Yf-10" value="Garçom" style="shape=umlActor;verticalLabelPosition=bottom;verticalAlign=top;html=1;outlineConnect=0;fillColor=#e51400;fontColor=#ffffff;strokeColor=#B20000;" vertex="1" parent="1">
          <mxGeometry x="740" y="100" width="30" height="60" as="geometry" />
        </mxCell>
        <mxCell id="YjTdUMy0hwMRpe88G5Yf-13" value="Gestor" style="shape=umlActor;verticalLabelPosition=bottom;verticalAlign=top;html=1;outlineConnect=0;fillColor=#008a00;fontColor=#ffffff;strokeColor=#005700;" vertex="1" parent="1">
          <mxGeometry x="750" y="210" width="30" height="60" as="geometry" />
        </mxCell>
        <mxCell id="YjTdUMy0hwMRpe88G5Yf-15" value="Cozinheiro" style="shape=umlActor;verticalLabelPosition=bottom;verticalAlign=top;html=1;outlineConnect=0;fillColor=#0050ef;fontColor=#ffffff;strokeColor=#001DBC;" vertex="1" parent="1">
          <mxGeometry x="750" y="330" width="30" height="60" as="geometry" />
        </mxCell>
        <mxCell id="YjTdUMy0hwMRpe88G5Yf-21" value="" style="edgeStyle=orthogonalEdgeStyle;rounded=0;orthogonalLoop=1;jettySize=auto;html=1;" edge="1" parent="1" source="YjTdUMy0hwMRpe88G5Yf-17" target="YjTdUMy0hwMRpe88G5Yf-20">
          <mxGeometry relative="1" as="geometry" />
        </mxCell>
        <mxCell id="YjTdUMy0hwMRpe88G5Yf-17" value="Salvar os dados na tabela do pedido e da Mesa" style="rounded=0;whiteSpace=wrap;html=1;" vertex="1" parent="1">
          <mxGeometry x="361" y="410" width="106" height="50" as="geometry" />
        </mxCell>
        <mxCell id="YjTdUMy0hwMRpe88G5Yf-26" style="edgeStyle=orthogonalEdgeStyle;rounded=0;orthogonalLoop=1;jettySize=auto;html=1;exitX=0;exitY=0.5;exitDx=0;exitDy=0;entryX=0.5;entryY=0;entryDx=0;entryDy=0;" edge="1" parent="1" source="YjTdUMy0hwMRpe88G5Yf-20" target="YjTdUMy0hwMRpe88G5Yf-25">
          <mxGeometry relative="1" as="geometry" />
        </mxCell>
        <mxCell id="YjTdUMy0hwMRpe88G5Yf-28" style="edgeStyle=orthogonalEdgeStyle;rounded=0;orthogonalLoop=1;jettySize=auto;html=1;exitX=1;exitY=0.5;exitDx=0;exitDy=0;entryX=0.5;entryY=0;entryDx=0;entryDy=0;" edge="1" parent="1" source="YjTdUMy0hwMRpe88G5Yf-20" target="YjTdUMy0hwMRpe88G5Yf-27">
          <mxGeometry relative="1" as="geometry" />
        </mxCell>
        <mxCell id="YjTdUMy0hwMRpe88G5Yf-20" value="Vai para a cozinha?" style="rhombus;whiteSpace=wrap;html=1;" vertex="1" parent="1">
          <mxGeometry x="351" y="480" width="126" height="60" as="geometry" />
        </mxCell>
        <mxCell id="YjTdUMy0hwMRpe88G5Yf-22" value="Sim" style="text;html=1;align=center;verticalAlign=middle;whiteSpace=wrap;rounded=0;" vertex="1" parent="1">
          <mxGeometry x="286" y="480" width="60" height="30" as="geometry" />
        </mxCell>
        <mxCell id="YjTdUMy0hwMRpe88G5Yf-24" value="Não" style="text;html=1;align=center;verticalAlign=middle;whiteSpace=wrap;rounded=0;" vertex="1" parent="1">
          <mxGeometry x="482" y="480" width="60" height="30" as="geometry" />
        </mxCell>
        <mxCell id="YjTdUMy0hwMRpe88G5Yf-30" style="edgeStyle=orthogonalEdgeStyle;rounded=0;orthogonalLoop=1;jettySize=auto;html=1;exitX=0.5;exitY=1;exitDx=0;exitDy=0;" edge="1" parent="1" source="YjTdUMy0hwMRpe88G5Yf-25" target="YjTdUMy0hwMRpe88G5Yf-29">
          <mxGeometry relative="1" as="geometry" />
        </mxCell>
        <mxCell id="YjTdUMy0hwMRpe88G5Yf-25" value="Printar na Tela da cozinha os itens que serão preparados" style="rounded=0;whiteSpace=wrap;html=1;" vertex="1" parent="1">
          <mxGeometry x="226" y="540" width="120" height="60" as="geometry" />
        </mxCell>
        <mxCell id="YjTdUMy0hwMRpe88G5Yf-32" value="" style="edgeStyle=orthogonalEdgeStyle;rounded=0;orthogonalLoop=1;jettySize=auto;html=1;" edge="1" parent="1" source="YjTdUMy0hwMRpe88G5Yf-27" target="YjTdUMy0hwMRpe88G5Yf-31">
          <mxGeometry relative="1" as="geometry" />
        </mxCell>
        <mxCell id="YjTdUMy0hwMRpe88G5Yf-27" value="criar um relatório com os itens que serão pegos no balcão e printar na tela do garçom" style="rounded=0;whiteSpace=wrap;html=1;" vertex="1" parent="1">
          <mxGeometry x="482" y="540" width="138" height="60" as="geometry" />
        </mxCell>
        <mxCell id="YjTdUMy0hwMRpe88G5Yf-42" style="edgeStyle=orthogonalEdgeStyle;rounded=0;orthogonalLoop=1;jettySize=auto;html=1;exitX=0.5;exitY=1;exitDx=0;exitDy=0;" edge="1" parent="1" source="YjTdUMy0hwMRpe88G5Yf-29" target="YjTdUMy0hwMRpe88G5Yf-41">
          <mxGeometry relative="1" as="geometry" />
        </mxCell>
        <mxCell id="YjTdUMy0hwMRpe88G5Yf-29" value="Cozinheiro prepara os itens de acordo com a sequincia pedida" style="ellipse;whiteSpace=wrap;html=1;" vertex="1" parent="1">
          <mxGeometry x="218" y="620" width="136" height="80" as="geometry" />
        </mxCell>
        <mxCell id="YjTdUMy0hwMRpe88G5Yf-34" style="edgeStyle=orthogonalEdgeStyle;rounded=0;orthogonalLoop=1;jettySize=auto;html=1;exitX=0.5;exitY=1;exitDx=0;exitDy=0;entryX=0.5;entryY=0;entryDx=0;entryDy=0;" edge="1" parent="1" source="YjTdUMy0hwMRpe88G5Yf-31" target="YjTdUMy0hwMRpe88G5Yf-33">
          <mxGeometry relative="1" as="geometry" />
        </mxCell>
        <mxCell id="YjTdUMy0hwMRpe88G5Yf-31" value="O garçom pega todos os itens necessários" style="ellipse;whiteSpace=wrap;html=1;" vertex="1" parent="1">
          <mxGeometry x="491" y="620" width="120" height="80" as="geometry" />
        </mxCell>
        <mxCell id="YjTdUMy0hwMRpe88G5Yf-36" value="" style="edgeStyle=orthogonalEdgeStyle;rounded=0;orthogonalLoop=1;jettySize=auto;html=1;" edge="1" parent="1" source="YjTdUMy0hwMRpe88G5Yf-33" target="YjTdUMy0hwMRpe88G5Yf-35">
          <mxGeometry relative="1" as="geometry" />
        </mxCell>
        <mxCell id="YjTdUMy0hwMRpe88G5Yf-33" value="o garçom clica em finalizar pedido após entregar tudo" style="ellipse;whiteSpace=wrap;html=1;" vertex="1" parent="1">
          <mxGeometry x="491" y="720" width="120" height="80" as="geometry" />
        </mxCell>
        <mxCell id="YjTdUMy0hwMRpe88G5Yf-49" style="edgeStyle=orthogonalEdgeStyle;rounded=0;orthogonalLoop=1;jettySize=auto;html=1;entryX=1;entryY=0.5;entryDx=0;entryDy=0;" edge="1" parent="1" source="YjTdUMy0hwMRpe88G5Yf-35" target="YjTdUMy0hwMRpe88G5Yf-6">
          <mxGeometry relative="1" as="geometry">
            <Array as="points">
              <mxPoint x="640" y="835" />
              <mxPoint x="640" y="340" />
            </Array>
          </mxGeometry>
        </mxCell>
        <mxCell id="YjTdUMy0hwMRpe88G5Yf-53" value="" style="edgeStyle=orthogonalEdgeStyle;rounded=0;orthogonalLoop=1;jettySize=auto;html=1;" edge="1" parent="1" source="YjTdUMy0hwMRpe88G5Yf-35" target="YjTdUMy0hwMRpe88G5Yf-52">
          <mxGeometry relative="1" as="geometry" />
        </mxCell>
        <mxCell id="YjTdUMy0hwMRpe88G5Yf-35" value="Volta a tela inicial" style="rounded=0;whiteSpace=wrap;html=1;" vertex="1" parent="1">
          <mxGeometry x="501.5" y="820" width="99" height="30" as="geometry" />
        </mxCell>
        <mxCell id="YjTdUMy0hwMRpe88G5Yf-38" value="" style="edgeStyle=orthogonalEdgeStyle;rounded=0;orthogonalLoop=1;jettySize=auto;html=1;" edge="1" parent="1" source="YjTdUMy0hwMRpe88G5Yf-37" target="YjTdUMy0hwMRpe88G5Yf-3">
          <mxGeometry relative="1" as="geometry" />
        </mxCell>
        <mxCell id="YjTdUMy0hwMRpe88G5Yf-37" value="Alterar adados gravados" style="ellipse;whiteSpace=wrap;html=1;" vertex="1" parent="1">
          <mxGeometry x="200" y="227.5" width="100" height="55" as="geometry" />
        </mxCell>
        <mxCell id="YjTdUMy0hwMRpe88G5Yf-45" value="" style="edgeStyle=orthogonalEdgeStyle;rounded=0;orthogonalLoop=1;jettySize=auto;html=1;" edge="1" parent="1" source="YjTdUMy0hwMRpe88G5Yf-41" target="YjTdUMy0hwMRpe88G5Yf-44">
          <mxGeometry relative="1" as="geometry" />
        </mxCell>
        <mxCell id="YjTdUMy0hwMRpe88G5Yf-41" value="O cozinheiro chama o garçom que cadastrou o pedido e diz a mesa" style="ellipse;whiteSpace=wrap;html=1;" vertex="1" parent="1">
          <mxGeometry x="214" y="720" width="144" height="80" as="geometry" />
        </mxCell>
        <mxCell id="YjTdUMy0hwMRpe88G5Yf-47" value="" style="edgeStyle=orthogonalEdgeStyle;rounded=0;orthogonalLoop=1;jettySize=auto;html=1;" edge="1" parent="1" source="YjTdUMy0hwMRpe88G5Yf-44" target="YjTdUMy0hwMRpe88G5Yf-46">
          <mxGeometry relative="1" as="geometry" />
        </mxCell>
        <mxCell id="YjTdUMy0hwMRpe88G5Yf-44" value="O cozinheiro clica em finalizado" style="ellipse;whiteSpace=wrap;html=1;" vertex="1" parent="1">
          <mxGeometry x="226" y="820" width="120" height="50" as="geometry" />
        </mxCell>
        <mxCell id="YjTdUMy0hwMRpe88G5Yf-51" style="edgeStyle=orthogonalEdgeStyle;rounded=0;orthogonalLoop=1;jettySize=auto;html=1;entryX=0;entryY=0.5;entryDx=0;entryDy=0;" edge="1" parent="1" source="YjTdUMy0hwMRpe88G5Yf-46" target="YjTdUMy0hwMRpe88G5Yf-25">
          <mxGeometry relative="1" as="geometry">
            <Array as="points">
              <mxPoint x="180" y="910" />
              <mxPoint x="180" y="570" />
            </Array>
          </mxGeometry>
        </mxCell>
        <mxCell id="YjTdUMy0hwMRpe88G5Yf-46" value="Passa para o próximo pedido" style="rounded=0;whiteSpace=wrap;html=1;" vertex="1" parent="1">
          <mxGeometry x="231" y="890" width="109" height="40" as="geometry" />
        </mxCell>
        <mxCell id="YjTdUMy0hwMRpe88G5Yf-52" value="Salvar os dados do valor vendido na tabela do Garçom" style="rounded=0;whiteSpace=wrap;html=1;" vertex="1" parent="1">
          <mxGeometry x="491" y="870" width="120" height="60" as="geometry" />
        </mxCell>
      </root>
    </mxGraphModel>
  </diagram>
</mxfile>
